<?xml version="1.0" encoding="UTF-8" standalone="no"?>
<!-- Created with Inkscape (http://www.inkscape.org/) -->

<svg
   xmlns:dc="http://purl.org/dc/elements/1.1/"
   xmlns:cc="http://creativecommons.org/ns#"
   xmlns:rdf="http://www.w3.org/1999/02/22-rdf-syntax-ns#"
   xmlns:svg="http://www.w3.org/2000/svg"
   xmlns="http://www.w3.org/2000/svg"
   xmlns:sodipodi="http://sodipodi.sourceforge.net/DTD/sodipodi-0.dtd"
   xmlns:inkscape="http://www.inkscape.org/namespaces/inkscape"
   width="1380.0834mm"
   height="204.03485mm"
   viewBox="0 0 1380.0834 204.03485"
   version="1.1"
   id="svg8"
   inkscape:version="0.92.4 (5da689c313, 2019-01-14)"
   sodipodi:docname="Billionaise.svg">
  <defs
     id="defs2" />
  <sodipodi:namedview
     id="base"
     pagecolor="#ffffff"
     bordercolor="#666666"
     borderopacity="1.0"
     inkscape:pageopacity="0.0"
     inkscape:pageshadow="2"
     inkscape:zoom="0.12561035"
     inkscape:cx="3274.152"
     inkscape:cy="-696.84056"
     inkscape:document-units="mm"
     inkscape:current-layer="layer1"
     showgrid="false"
     fit-margin-left="5"
     fit-margin-top="5"
     fit-margin-right="5"
     fit-margin-bottom="5"
     inkscape:window-width="1920"
     inkscape:window-height="998"
     inkscape:window-x="-11"
     inkscape:window-y="1657"
     inkscape:window-maximized="1" />
  <metadata
     id="metadata5">
    <rdf:RDF>
      <cc:Work
         rdf:about="">
        <dc:format>image/svg+xml</dc:format>
        <dc:type
           rdf:resource="http://purl.org/dc/dcmitype/StillImage" />
        <dc:title></dc:title>
      </cc:Work>
    </rdf:RDF>
  </metadata>
  <g
     inkscape:label="Layer 1"
     inkscape:groupmode="layer"
     id="layer1"
     transform="translate(616.77208,-424.83601)">
    <g
       id="g847"
       transform="translate(119.15494,308.3134)"
       style="fill:#000000">
      <path
         style="fill:#000000;fill-opacity:1;stroke-width:0.26458335"
         d="m 2.981515,315.09137 c -12.7550335,-1.13647 -24.359288,-5.17081 -32.29491,-11.22766 -11.795495,-9.0029 -18.439897,-22.86681 -20.79625,-43.39259 -0.622485,-5.42225 -0.626057,-15.80072 -0.0071,-21.03438 1.404885,-11.88225 4.8192,-22.59771 9.716188,-30.49327 7.561633,-12.19189 20.356804,-20.04247 37.413354,-22.9553 11.8934708,-2.0311 27.201972,-0.88331 37.703125,2.82688 3.809286,1.34586 10.459906,4.74124 13.493751,6.88904 3.803385,2.69259 9.234328,8.25475 11.699954,11.98265 4.310539,6.51734 7.293028,13.94553 9.029753,22.48959 1.205654,5.93122 1.363795,8.17673 1.351016,19.18229 -0.01879,16.27392 -1.086433,23.61242 -4.791896,32.94063 -5.688039,14.31925 -15.12144,23.4913 -29.760148,28.93573 -4.558057,1.69523 -10.30441,2.93158 -16.765138,3.60709 -3.801348,0.39746 -12.7611454,0.53714 -15.9915492,0.2493 z m 12.287382,-9.27293 c 3.199633,-0.39211 6.280997,-1.31823 9.069018,-2.72576 8.960247,-4.52358 14.468792,-12.10042 18.177325,-25.00237 1.367895,-4.7589 1.709869,-7.10374 2.029407,-13.91502 0.334433,-7.12879 0.129831,-30.82822 -0.296942,-34.39584 -0.607007,-5.07447 -2.689728,-12.02732 -5.16853,-17.25431 -4.942443,-10.42212 -12.087437,-16.27644 -22.090486,-18.10006 -5.988694,-0.52732 -11.4023299,-0.71958 -16.93333346,0.84777 -6.41283864,1.81473 -11.71162254,5.86962 -15.80263654,12.09292 -3.734673,5.68121 -7.161213,15.26127 -8.016796,22.41368 -0.426773,3.56762 -0.631375,27.26705 -0.296942,34.39584 0.319538,6.81128 0.661512,9.15612 2.029407,13.91502 3.708533,12.90195 9.217078,20.47879 18.1773254,25.00237 6.5263697,2.56739 13.2949185,3.34012 19.1231836,2.72576 z m 445.822923,8.98419 c -5.21264,-0.18898 -11.75724,-0.80388 -15.10321,-1.41904 -3.14386,-0.57799 -8.27929,-2.03324 -14.15489,-4.01113 l -5.18978,-1.74702 -0.31853,-2.14591 c -0.50207,-3.38234 -2.60935,-14.8796 -3.74973,-20.45824 -0.57147,-2.79575 -1.03907,-5.32277 -1.03907,-5.6156 0,-0.64879 0.90638,-1.14879 3.12425,-1.7235 2.55397,-0.6618 3.46919,-0.62015 4.16568,0.18957 0.32573,0.37865 1.0322,2.00888 1.56993,3.62272 3.9886,11.97002 12.25069,20.71381 21.86573,23.14056 6.81529,1.72012 17.60331,1.59581 23.57718,-0.27168 4.55435,-1.42373 8.71762,-4.14886 11.62264,-7.60773 1.67317,-1.99217 3.64797,-5.59702 4.29591,-7.8418 1.97061,-6.82724 0.25953,-13.89184 -4.58235,-18.91908 -2.27705,-2.36422 -6.36831,-4.87786 -18.41084,-11.31151 -25.80074,-13.78387 -33.76055,-19.2263 -38.21012,-26.12566 -4.36507,-6.76837 -6.12278,-16.64605 -4.26091,-23.9448 1.91672,-7.51381 7.73915,-13.70675 17.05256,-18.13773 8.22187,-3.91165 15.78859,-5.31159 28.72576,-5.3146 4.3748,-0.001 8.14221,0.14757 10.71562,0.42265 6.0102,0.64245 18.47152,3.25514 21.43879,4.49495 0.6412,0.26791 0.87633,0.56101 0.99531,1.24067 1.78755,10.21044 2.91076,17.23644 4.01786,25.13299 l 0.13454,0.95977 -2.31304,0.42723 c -1.27217,0.23498 -2.92592,0.52876 -3.67501,0.65284 l -1.36199,0.22561 -0.99053,-3.3324 c -2.49938,-8.40845 -4.50146,-12.35753 -7.96062,-15.70213 -3.30848,-3.19893 -7.25535,-4.78239 -13.64832,-5.47562 -12.74093,-1.38158 -24.35871,2.45331 -29.03942,9.58557 -3.3038,5.03419 -2.77704,11.45263 1.39504,16.99786 2.70145,3.59059 6.08798,5.68516 22.67302,14.02333 20.9537,10.53453 25.76959,13.62241 33.11617,21.2336 4.63609,4.80305 6.99688,8.64418 8.18381,13.31547 0.77507,3.0503 1.03624,13.61415 0.40976,16.57349 -2.95519,13.95958 -18.19463,25.41079 -37.6087,28.25991 -3.79143,0.55641 -11.47826,0.82334 -17.4625,0.60639 z m 121.6429,0.0278 c -8.03836,-0.61386 -16.41604,-2.87687 -22.90175,-6.18628 -18.98803,-9.68885 -28.74282,-30.24892 -28.75589,-60.60849 -0.006,-13.45784 2.01533,-23.57305 6.62844,-33.17353 4.68434,-9.74875 10.3132,-16.34474 18.37172,-21.5283 17.42773,-11.21021 44.00645,-10.994 60.08735,0.48879 6.4597,4.61265 11.09768,10.26133 14.93605,18.19091 2.84263,5.8725 4.81692,12.27548 6.06271,19.66227 0.49514,2.93596 1.59618,13.43339 1.59618,15.21826 v 0.74473 h -41.30794 -41.30794 c -0.0151,10.80311 1.17884,22.42154 3.9344,30.95625 11.87618,34.24815 55.18995,30.01217 69.54745,5.35781 0.54862,-1.05502 1.16579,-1.91823 1.37145,-1.91823 1.46244,0.6089 7.41611,2.92203 7.498,3.90752 -10.79781,19.99568 -31.56985,30.70779 -55.76023,28.88829 z m 31.68314,-75.79572 c 0,-0.97426 -0.87114,-11.91138 -1.07436,-13.48863 -1.9203,-14.90343 -7.54193,-25.03378 -16.22399,-29.23614 -5.75239,-2.37436 -12.12546,-3.03306 -17.21347,-1.49061 -11.92485,3.64617 -20.23335,15.26714 -22.90096,32.03124 -0.26824,1.6857 -1.04833,10.34328 -1.05659,11.72624 l -0.004,0.59531 h 29.23645 c 16.08006,0 29.23646,-0.0618 29.23646,-0.13741 z M 257.62723,314.5497 c -8.08355,-0.55511 -13.30944,-2.1809 -19.10572,-5.94385 -2.55876,-1.66114 -5.93577,-4.80955 -7.76898,-7.24309 -5.02813,-7.60782 -6.72767,-14.86426 -5.55985,-23.82601 2.60623,-14.15633 12.74819,-23.33236 23.93706,-29.01955 8.84328,-4.43962 17.3109,-7.17666 38.74688,-12.52435 6.88727,-1.71819 12.55562,-3.16425 12.59634,-3.21348 0.15425,-0.18649 -0.61452,-16.35327 -0.90384,-19.00721 -1.0449,-9.58469 -3.51219,-13.82607 -9.96778,-17.13497 -6.76272,-2.90351 -13.39003,-3.58694 -19.99094,-1.97387 -5.61364,1.39582 -11.00146,5.05598 -14.0139,9.52023 -3.23807,4.46456 -4.88447,10.70117 -8.69172,14.19352 -3.23291,2.75933 -11.06011,2.62789 -13.97283,0.0785 -1.72805,-1.61074 -2.68213,-5.51566 -2.15453,-8.81821 1.07471,-6.72744 7.18759,-13.72557 15.74848,-18.02914 14.92507,-6.77051 32.18043,-7.72125 48.27529,-5.50378 12.35966,2.81569 25.35771,11.18082 27.7912,24.15697 0.63386,3.89451 0.93025,14.04503 1.45841,49.94511 0.37978,25.81315 0.6255,33.43673 1.17293,36.38792 0.9337,2.82036 2.30529,6.80235 5.29621,7.67824 1.75612,0.49172 5.12249,0.3826 7.19191,-0.23312 2.282,-0.67898 2.49425,-0.52423 3.03326,2.21167 0.37989,1.92836 0.37986,2.20679 0,3.11661 -0.51073,1.22232 -1.56393,1.73924 -5.48709,2.69309 -6.30761,1.53358 -16.02216,1.58661 -21.40656,0.11685 -4.99497,-1.36346 -8.4109,-4.603 -11.36206,-10.77527 -0.50104,-1.04795 -0.97729,-1.90532 -1.05833,-1.90526 -0.081,5e-5 -1.45701,1.07774 -3.05774,2.39485 -9.73256,8.00815 -19.19454,11.78766 -31.75,12.68229 -4.08122,0.29081 -4.4146,0.28989 -8.99583,-0.0247 z m 21.43125,-12.16828 c 7.11914,-1.33121 13.27624,-5.48606 18.50536,-9.88387 l 2.7936,-2.3694 v -24.28737 c 0,-13.35805 -0.0893,-24.28722 -0.19844,-24.28703 -0.73548,0.001 -6.29089,1.53904 -9.66022,2.67402 -16.58173,5.58563 -26.14285,10.57415 -32.63215,17.02586 -9.30774,9.97512 -10.6383,27.14776 -1.38758,36.27171 6.47924,5.79141 14.30387,5.88971 22.57943,4.85608 z m -920.51527,9.83018 c -3.62789,-0.56956 -6.85726,-2.22809 -9.51678,-4.88761 -3.34463,-3.34463 -4.97456,-7.25283 -4.97456,-11.92787 0,-4.67504 1.62993,-8.58324 4.97456,-11.92787 3.34464,-3.34463 7.25284,-4.97456 11.92788,-4.97456 4.67503,0 8.58324,1.62993 11.92787,4.97456 5.45764,5.45764 6.57319,13.46542 2.82269,20.26225 -1.21703,2.20554 -4.21368,5.20134 -6.41619,6.41436 -3.20977,1.76777 -7.45227,2.58375 -10.74547,2.06674 z m 119.48922,-4.06547 v -4.05103 l 4.33285,-0.31492 c 9.32831,-0.67801 13.24039,-1.87372 14.43842,-4.41302 1.33309,-2.82561 1.59631,-6.92774 1.86769,-29.10646 0.47499,-38.8203 0.13931,-120.62912 -0.51395,-125.25291 -0.55298,-3.914 -2.68754,-5.9767 -7.57386,-7.31886 -1.10825,-0.30441 -3.18793,-0.4735 -7.06104,-0.5741 l -5.49011,-0.1426 v -4.23907 -4.23908 l 36.44636,0.18381 c 45.89981,0.23147 54.55555,0.51091 63.13421,2.03818 15.5384,2.76632 27.56935,9.80663 34.09696,19.95296 5.11982,7.95806 6.6979,17.99347 4.43114,28.17813 -2.92381,13.13664 -11.56306,23.12969 -24.90655,28.80953 -5.89066,2.50744 -15.92533,5.43862 -19.67191,5.74628 -2.06237,0.16936 -3.57187,0.55337 -3.57187,0.90868 0,0.45264 1.99694,0.82705 11.24479,2.10832 15.55411,2.15498 28.47689,7.94377 37.18277,16.6561 16.11158,17.41182 12.22197,46.83613 -2.6787,62.45145 -9.25771,9.30103 -22.74961,14.4079 -41.9124,15.86445 -6.51714,0.49537 -30.07398,0.79814 -62.37553,0.80172 l -31.41927,0.003 z m 84.2698,-7.32298 c 9.27981,-0.28505 11.20581,-0.51116 14.94895,-1.75501 11.53467,-3.83296 20.66087,-13.44612 23.28606,-24.52858 1.5721,-6.63666 1.88701,-18.15124 0.65646,-24.00116 -2.72897,-12.97305 -12.31784,-22.28599 -27.49865,-26.70733 -3.58791,-1.04496 -6.78323,-1.5307 -12.16919,-1.84995 -4.75057,-0.28157 -26.43738,-0.79814 -33.57401,-0.79971 l -4.18791,-7.9e-4 0.11986,35.6526 c 0.0825,24.56574 0.21352,36.33684 0.42111,37.85293 0.47585,3.475 0.96936,5.41876 3.94634,6.20674 2.0333,0.21401 26.44214,0.16411 34.05098,-0.0696 z m -6.74688,-91.01234 c 12.70418,-1.39411 23.61597,-6.45318 29.22881,-13.55141 4.51297,-5.70728 7.13671,-13.41323 7.46001,-21.91016 0.46238,-12.15196 -4.10239,-22.77914 -11.96327,-27.85153 -6.44324,-4.15761 -12.43031,-6.10388 -21.02138,-6.83359 -5.40314,-0.45893 -29.90562,-0.49058 -31.38475,-0.0405 -2.74431,0.83499 -3.45535,2.26171 -3.80312,7.63094 -0.14046,2.16902 -0.25786,17.26307 -0.26085,33.54233 l -0.006,29.59864 14.48594,-0.13991 c 8.07969,-0.078 15.71453,-0.27473 17.26406,-0.44477 z m 93.39792,98.81952 c 0,-3.489 0.013,-3.56931 0.59531,-3.68005 0.32742,-0.0623 2.46417,-0.24026 4.74835,-0.39554 6.71914,-0.45674 10.01842,-1.50706 11.99776,-3.81947 1.96882,-2.30013 2.11924,-4.11951 2.52572,-30.5525 0.30988,-20.14899 0.014,-50.79209 -0.56097,-58.10532 -0.3183,-4.04813 -0.72144,-4.97614 -2.77665,-6.39162 -2.20789,-1.52063 -4.12136,-1.97983 -9.34931,-2.2437 -5.21822,-0.26337 -6.22615,-0.49875 -6.78794,-1.58512 -0.44659,-0.8636 -0.52866,-3.73979 -0.12809,-4.48828 0.28673,-0.53575 1.00026,-0.71431 8.46707,-2.11894 9.6556,-1.81637 19.12787,-4.60021 26.9875,-7.93145 5.82996,-2.47097 7.09173,-2.40663 7.69503,0.39236 0.19207,0.89104 0.36177,16.04994 0.51988,46.43438 0.23398,44.96293 0.5202,62.48321 1.05135,64.35321 1.0286,3.62127 4.92829,5.48144 12.68262,6.04961 5.6782,0.41605 5.03862,-0.10214 5.03862,4.08243 v 3.56683 h -31.35313 -31.35312 z m 74.87708,-0.0981 v -3.66492 l 4.0349,-0.18544 c 8.21973,-0.37777 11.79155,-1.90926 13.58394,-5.82438 1.29281,-2.82381 1.29887,-3.17519 1.29887,-75.16345 0,-69.15117 -0.0573,-73.35413 -1.0664,-78.27748 -0.51634,-2.51914 -1.06008,-3.33221 -2.87814,-4.30377 -2.18707,-1.16876 -6.35206,-1.97347 -12.26119,-2.36896 l -2.71198,-0.18151 v -3.12892 -3.12893 l 0.8599,-0.13992 c 0.47294,-0.077 2.22911,-0.3305 3.9026,-0.56342 8.79219,-1.22373 17.07817,-3.46241 27.47873,-7.42412 7.56547,-2.88178 9.15942,-3.19904 9.82493,-1.95553 0.72165,1.34839 0.83005,10.01853 1.05698,84.53922 0.23331,76.60475 0.40722,90.49602 1.15541,92.28667 1.37041,3.27987 5.01404,4.91675 12.20478,5.48294 2.04015,0.16064 4.09633,0.34945 4.56928,0.41958 l 0.85989,0.1275 v 3.55989 3.55988 h -30.95625 -30.95625 z m 74.87709,-0.0392 v -3.70417 l 1.78593,-0.004 c 10.64639,-0.0249 15.49006,-2.44608 16.4691,-8.23209 0.57777,-3.41458 0.77502,-21.97275 0.77854,-73.25539 0.005,-70.6324 -0.20963,-77.93581 -2.37842,-80.98159 -1.15507,-1.62216 -5.72175,-2.85853 -12.75255,-3.4526 l -3.9026,-0.32975 v -3.11438 -3.11437 l 0.85989,-0.13992 c 0.47295,-0.077 2.22912,-0.3305 3.90261,-0.56342 8.67333,-1.20719 16.97371,-3.44319 27.10368,-7.30135 8.19888,-3.12267 9.65088,-3.39223 10.21926,-1.89722 0.68956,1.81366 0.81415,12.1691 1.04032,86.47481 0.1343,44.1243 0.35163,80.11136 0.50448,83.53107 0.29615,6.62687 0.43452,7.18754 2.18564,8.85631 1.99737,1.90346 5.00288,2.82386 10.67266,3.2684 2.03729,0.15974 4.09112,0.34754 4.56406,0.41733 l 0.8599,0.12691 v 3.55988 3.55989 h -30.95625 -30.95625 V 308.493 Z m 74.6125,0.13733 c 0,-3.489 0.013,-3.56931 0.59531,-3.68005 0.32742,-0.0623 2.46417,-0.24026 4.74834,-0.39554 6.71915,-0.45674 10.01843,-1.50706 11.99777,-3.81947 1.96882,-2.30013 2.11924,-4.11951 2.52572,-30.5525 0.30988,-20.14899 0.014,-50.79209 -0.56097,-58.10532 -0.3183,-4.04813 -0.72144,-4.97614 -2.77665,-6.39162 -2.20789,-1.52063 -4.12136,-1.97983 -9.34931,-2.2437 -5.21822,-0.26337 -6.22615,-0.49875 -6.78794,-1.58512 -0.44659,-0.8636 -0.52867,-3.73979 -0.12809,-4.48828 0.28673,-0.53575 1.00026,-0.71431 8.46707,-2.11894 9.6556,-1.81637 19.127865,-4.60021 26.987498,-7.93145 5.829961,-2.47097 7.091733,-2.40663 7.695036,0.39236 0.192061,0.89104 0.361765,16.04994 0.51988,46.43438 0.233971,44.96293 0.520197,62.48321 1.051348,64.35321 1.028594,3.62127 4.928288,5.48144 12.682617,6.04961 5.678196,0.41605 5.038619,-0.10214 5.038619,4.08243 v 3.56683 H -95.326937 -126.68006 Z M 83.399107,308.53 v -3.66716 l 3.63802,-0.14355 c 6.331215,-0.24983 9.799479,-1.96078 11.311811,-5.58028 0.844815,-2.02191 1.050925,-11.3971 1.050793,-47.79602 -1.32e-4,-38.44492 -0.06054,-40.40451 -1.323446,-42.93514 -0.888497,-1.78043 -2.300155,-3.23954 -3.951076,-4.08392 -1.064868,-0.54465 -1.913255,-0.716 -4.497917,-0.90842 -5.228378,-0.38926 -6.095894,-0.97215 -6.095894,-4.09585 0,-2.41317 0.146288,-2.50959 5.785644,-3.81312 9.58096,-2.21464 16.450418,-4.43201 23.505428,-7.58724 4.00325,-1.7904 4.77009,-2.04727 6.13042,-2.05353 2.69497,-0.0124 2.92034,0.71555 3.35515,10.83721 0.33991,7.91307 0.49049,9.22672 1.07043,9.33841 0.59319,0.11424 2.51285,-1.39683 6.91105,-5.44001 7.73377,-7.10952 13.24311,-10.67576 19.96995,-12.9267 11.20294,-3.74874 26.69101,-2.9842 35.77691,1.76608 6.58305,3.44173 11.21587,9.19517 13.91425,17.2799 1.77565,5.32013 1.87264,7.23399 2.36847,46.739 0.50554,40.27791 0.64789,44.04923 1.75734,46.55821 1.34681,3.04585 4.71845,4.75317 9.41263,4.76637 2.38559,0.007 2.46629,0.14167 2.46629,4.12453 v 3.28839 h -25.4 -25.4 v -3.28839 c 0,-3.98286 0.0807,-4.11783 2.46628,-4.12453 4.24411,-0.0119 8.1071,-1.67395 9.32966,-4.01399 0.93009,-1.78025 1.40259,-15.01074 1.60457,-44.92934 0.16722,-24.77024 -0.0866,-37.35061 -0.84101,-41.67644 -2.13045,-12.21696 -9.82384,-18.98087 -20.7954,-18.283 -9.34696,0.59453 -19.16012,7.32364 -30.49603,20.91187 l -3.07224,3.68264 0.004,30.84549 c 0.003,16.96502 0.12234,33.57667 0.26635,36.9148 0.43199,10.01305 1.19415,13.38239 3.34989,14.80898 1.2718,0.84164 4.71123,1.74225 6.67417,1.74763 2.26753,0.006 2.25986,-0.007 2.35995,3.95454 l 0.0872,3.44974 H 109.74616 83.39908 V 308.53 Z m 265.377083,0.10033 c 0,-3.489 0.013,-3.56931 0.59532,-3.68005 0.32742,-0.0623 2.46417,-0.24026 4.74834,-0.39554 6.71915,-0.45674 10.01842,-1.50706 11.99777,-3.81947 1.96882,-2.30013 2.11923,-4.11951 2.52571,-30.5525 0.30988,-20.14899 0.014,-50.79209 -0.56097,-58.10532 -0.31829,-4.04813 -0.72144,-4.97614 -2.77664,-6.39162 -2.2079,-1.52063 -4.12136,-1.97983 -9.34932,-2.2437 -5.21822,-0.26337 -6.22615,-0.49875 -6.78794,-1.58512 -0.44659,-0.8636 -0.52866,-3.73979 -0.12808,-4.48828 0.28673,-0.53575 1.00026,-0.71431 8.46706,-2.11894 9.6556,-1.81637 19.12787,-4.60021 26.9875,-7.93145 5.82996,-2.47097 7.09174,-2.40663 7.69504,0.39236 0.19206,0.89104 0.36176,16.04994 0.51988,46.43438 0.23397,44.96293 0.5202,62.48321 1.05135,64.35321 1.02859,3.62127 4.92829,5.48144 12.68261,6.04961 5.6782,0.41605 5.03862,-0.10214 5.03862,4.08243 v 3.56683 H 380.12932 348.77619 Z M -694.48897,290.23559 c -6.70714,-1.05586 -12.39394,-6.34567 -13.85024,-12.88337 -2.39736,-10.76237 5.48788,-20.68688 16.45691,-20.71297 9.00765,-0.0214 16.44124,7.07367 16.83573,16.06906 0.17532,3.99782 -0.87974,7.47524 -3.29256,10.85206 -3.49631,4.89321 -10.10858,7.62626 -16.14984,6.67522 z m 105.09168,-0.14421 c -6.99099,-1.50417 -11.88324,-6.39642 -13.38741,-13.38741 -0.76146,-3.53902 0.0163,-8.28636 1.89621,-11.57358 2.99178,-5.23158 8.65165,-8.50547 14.6794,-8.49114 10.96903,0.0261 18.85428,9.9506 16.45691,20.71297 -0.98244,4.41042 -4.06544,8.55198 -8.07154,10.84295 -3.28722,1.87986 -8.03455,2.65766 -11.57357,1.89621 z m -127.10327,-52.7627 c -3.54289,-0.6459 -7.46688,-2.71711 -9.58095,-5.05714 -1.63465,-1.80935 -3.02214,-4.18561 -3.76036,-6.44009 -0.966,-3.60311 -1.03133,-7.1748 0,-10.36024 1.21887,-3.72237 3.44732,-6.66095 6.70217,-8.83793 2.9532,-1.97522 5.54601,-2.73322 9.34921,-2.73322 2.58699,0 3.36824,0.10653 5.21613,0.71126 5.14342,1.6832 9.14302,5.6919 10.83525,10.85989 0.96601,3.6031 1.03134,7.17481 0,10.36024 -1.21887,3.72237 -3.44731,6.66094 -6.70216,8.83792 -3.33373,2.22973 -8.34908,3.33571 -12.05929,2.65931 z m 148.02335,-0.27812 c -6.01566,-1.5761 -10.69011,-6.28566 -12.23527,-12.32716 -2.28749,-8.94402 3.26614,-18.16307 12.3395,-20.48365 8.94402,-2.28749 18.16308,3.26613 20.48365,12.3395 2.29558,8.97564 -3.23405,18.15487 -12.3395,20.48365 -2.58725,0.66171 -5.6934,0.65706 -8.24838,-0.0123 z m -124.94036,-52.3204 c -4.95437,-0.37518 -10.01744,-3.44855 -12.74283,-7.73508 -1.88684,-2.96766 -2.66395,-5.74319 -2.6431,-9.43997 0.0266,-4.71333 1.60026,-8.31752 5.17787,-11.85899 3.57914,-3.54299 7.78061,-5.13406 12.70337,-4.81069 4.42263,0.29051 7.91597,1.8605 10.99844,4.94298 5.21469,5.21469 6.47804,12.90166 3.21781,19.57917 -1.15551,2.36668 -4.38507,5.80113 -6.65739,7.07974 -2.97338,1.67309 -6.67469,2.49876 -10.05417,2.24284 z m 105.17188,-0.0925 c -3.72463,-0.34292 -7.62105,-2.38513 -10.51471,-5.51101 -6.11237,-6.6029 -5.85153,-16.85386 0.59283,-23.29822 3.08248,-3.08248 6.57582,-4.65247 10.99844,-4.94298 4.92276,-0.32337 9.12423,1.2677 12.70337,4.81069 3.57762,3.54147 5.15127,7.14566 5.17787,11.85899 0.008,1.48266 -0.12202,3.23093 -0.28974,3.88504 -1.17168,4.56941 -3.60661,8.11615 -7.15869,10.42738 -3.62658,2.35971 -7.04101,3.18151 -11.50937,2.77011 z m 260.35,-15.16015 c -6.19056,-1.43187 -10.66099,-5.43493 -12.73395,-11.40266 -1.02542,-3.6865 -1.1174,-7.33 0,-10.57826 0.95653,-2.75366 2.20872,-4.78081 4.15616,-6.72825 1.94744,-1.94743 3.97457,-3.19963 6.72825,-4.15614 3.68649,-1.02546 7.33,-1.11742 10.57825,0 2.75368,0.95651 4.78081,2.20871 6.72825,4.15614 1.94744,1.94744 3.19963,3.97459 4.15615,6.72825 1.02543,3.68649 1.11739,7.33 0,10.57826 -2.41152,6.94239 -8.31291,11.38205 -15.51159,11.66947 -1.56247,0.0624 -3.11489,-0.0386 -4.10152,-0.26681 z m 224.36667,0 c -6.19056,-1.43187 -10.66099,-5.43493 -12.73395,-11.40266 -1.02537,-3.68646 -1.11752,-7.33012 0,-10.57826 0.95652,-2.75366 2.20872,-4.78081 4.15616,-6.72825 1.94744,-1.94743 3.97457,-3.19963 6.72825,-4.15614 3.68649,-1.02546 7.330004,-1.11742 10.578249,0 2.753678,0.95651 4.78081,2.20871 6.728249,4.15614 1.947439,1.94744 3.199633,3.97459 4.156154,6.72825 1.025398,3.68648 1.117459,7.33006 0,10.57826 -2.411518,6.94239 -8.312917,11.38205 -15.511595,11.66947 -1.562467,0.0624 -3.114887,-0.0386 -4.101517,-0.26681 z m 475.45625,0 c -6.19056,-1.43187 -10.66098,-5.43493 -12.73394,-11.40266 -1.02543,-3.68649 -1.11739,-7.33 0,-10.57826 0.95652,-2.75366 2.20871,-4.78081 4.15615,-6.72825 1.94744,-1.94743 3.97457,-3.19963 6.72825,-4.15614 3.68649,-1.02546 7.33001,-1.11742 10.57826,0 2.75367,0.95651 4.7808,2.20871 6.72824,4.15614 1.94744,1.94744 3.19964,3.97459 4.15616,6.72825 1.02543,3.68649 1.11739,7.33 0,10.57826 -2.41152,6.94239 -8.31292,11.38205 -15.5116,11.66947 -1.56247,0.0624 -3.11488,-0.0386 -4.10152,-0.26681 z m -1014.41251,-6.87916 c -6.19057,-1.43187 -10.66099,-5.43493 -12.73394,-11.40267 -1.02538,-3.68645 -1.11754,-7.33012 0,-10.57825 0.95652,-2.75367 2.20871,-4.78082 4.15615,-6.72825 1.94744,-1.94744 3.97458,-3.19964 6.72825,-4.15615 3.68649,-1.02544 7.33,-1.11741 10.57825,0 2.75367,0.95651 4.78081,2.20871 6.72825,4.15615 1.94744,1.94743 3.19964,3.97458 4.15615,6.72825 1.02545,3.68648 1.11741,7.33 0,10.57825 -2.4115,6.94239 -8.3129,11.38205 -15.51159,11.66947 -1.56248,0.0624 -3.11488,-0.0386 -4.10152,-0.2668 z"
         id="path849"
         inkscape:connector-curvature="0"
         sodipodi:nodetypes="cscccscsccccsccccsssccccccssccscscccssccssccssccccscccccccccsscsccssscsccscscsccccccccccccsccscccccccscccccccccccsccccccscccccccccsccccccsscsscccccccsssscccssccscssccccccccccscccccccccsscscccccccscccccccscsccscsscccsccscsccscccccscscscccccccccccccscccccscscccccccccccscccccccscsccscsscccsccccscccsccscccsccsccscccsccscsccccccccccccscccccccscsccscsscccssscscsscccsssccccssccccccccscccsccsccssscssccccsccccccccccccccccccccccccccccccccccccccccccccc" />
    </g>
  </g>
</svg>
